<svg width="32" height="32" viewBox="0 0 32 32" fill="none" xmlns="http://www.w3.org/2000/svg">
<path d="M12.76 25.0935C12.5067 25.0935 12.2533 25.0002 12.0533 24.8002L3.96001 16.7068C3.57335 16.3202 3.57335 15.6802 3.96001 15.2935L12.0533 7.20016C12.44 6.81349 13.08 6.81349 13.4667 7.20016C13.8533 7.58682 13.8533 8.22682 13.4667 8.61349L6.08001 16.0002L13.4667 23.3868C13.8533 23.7735 13.8533 24.4135 13.4667 24.8002C13.28 25.0002 13.0133 25.0935 12.76 25.0935Z" fill="#1C1B1B"/>
<path d="M27.3333 17H4.89334C4.34667 17 3.89334 16.5467 3.89334 16C3.89334 15.4533 4.34667 15 4.89334 15H27.3333C27.88 15 28.3333 15.4533 28.3333 16C28.3333 16.5467 27.88 17 27.3333 17Z" fill="#1C1B1B"/>
</svg>
