<svg width="24" height="24" viewBox="0 0 24 24" fill="none" xmlns="http://www.w3.org/2000/svg">
<path d="M11.9993 11.5018L16.4599 15.7293C16.6296 15.9027 16.8588 16 17.0976 16C17.3365 16 17.5657 15.9027 17.7354 15.7293C17.8192 15.6441 17.8858 15.5426 17.9312 15.4307C17.9766 15.3187 18 15.1986 18 15.0772C18 14.9558 17.9766 14.8357 17.9312 14.7237C17.8858 14.6118 17.8192 14.5103 17.7354 14.4251L12.6384 9.27028C12.4683 9.0971 12.239 9 12 9C11.761 9 11.5317 9.0971 11.3616 9.27028L6.26458 14.4251C6.18078 14.5103 6.11424 14.6118 6.06882 14.7237C6.02339 14.8357 6 14.9558 6 15.0772C6 15.1986 6.02339 15.3187 6.06882 15.4307C6.11424 15.5426 6.18078 15.6441 6.26458 15.7293C6.43431 15.9027 6.66351 16 6.90236 16C7.14121 16 7.37041 15.9027 7.54013 15.7293L11.9993 11.5018Z" fill="#1C1B1B"/>
</svg>
