<svg width="24" height="24" viewBox="0 0 24 24" fill="none" xmlns="http://www.w3.org/2000/svg">
<path d="M1.99976 10H21.9998" stroke="#292D32" stroke-width="1.5" stroke-miterlimit="10" stroke-linecap="round" stroke-linejoin="round"/>
<path d="M11.548 20.4998H6.43805C2.88805 20.4998 1.98804 19.6198 1.98804 16.1098V7.88977C1.98804 4.70977 2.72807 3.68977 5.51807 3.52977C5.79807 3.51977 6.10805 3.50977 6.43805 3.50977H17.548C21.098 3.50977 21.998 4.38977 21.998 7.89977V12.3098" stroke="#292D32" stroke-width="1.5" stroke-linecap="round" stroke-linejoin="round"/>
<path d="M5.99976 16H9.99976" stroke="#292D32" stroke-width="1.5" stroke-miterlimit="10" stroke-linecap="round" stroke-linejoin="round"/>
<path d="M21.9998 18C21.9998 18.75 21.7897 19.46 21.4197 20.06C20.7297 21.22 19.4598 22 17.9998 22C16.5398 22 15.2698 21.22 14.5798 20.06C14.2098 19.46 13.9998 18.75 13.9998 18C13.9998 15.79 15.7898 14 17.9998 14C20.2098 14 21.9998 15.79 21.9998 18Z" stroke="#292D32" stroke-width="1.5" stroke-miterlimit="10" stroke-linecap="round" stroke-linejoin="round"/>
<path d="M16.4412 17.9995L17.4312 18.9895L19.5612 17.0195" stroke="#292D32" stroke-width="1.5" stroke-linecap="round" stroke-linejoin="round"/>
</svg>
