<svg width="32" height="32" viewBox="0 0 32 32" fill="none" xmlns="http://www.w3.org/2000/svg">
<path d="M29.3334 9.66699H21.3334C20.7867 9.66699 20.3334 9.21366 20.3334 8.66699C20.3334 8.12033 20.7867 7.66699 21.3334 7.66699H29.3334C29.88 7.66699 30.3334 8.12033 30.3334 8.66699C30.3334 9.21366 29.88 9.66699 29.3334 9.66699Z" fill="#1C1B1B"/>
<path d="M7.99996 9.66699H2.66663C2.11996 9.66699 1.66663 9.21366 1.66663 8.66699C1.66663 8.12033 2.11996 7.66699 2.66663 7.66699H7.99996C8.54663 7.66699 8.99996 8.12033 8.99996 8.66699C8.99996 9.21366 8.54663 9.66699 7.99996 9.66699Z" fill="#1C1B1B"/>
<path d="M13.3333 14.3333C10.2133 14.3333 7.66663 11.7867 7.66663 8.66667C7.66663 5.54667 10.2133 3 13.3333 3C16.4533 3 19 5.54667 19 8.66667C19 11.7867 16.4533 14.3333 13.3333 14.3333ZM13.3333 5C11.3066 5 9.66663 6.64 9.66663 8.66667C9.66663 10.6933 11.3066 12.3333 13.3333 12.3333C15.36 12.3333 17 10.6933 17 8.66667C17 6.64 15.36 5 13.3333 5Z" fill="#1C1B1B"/>
<path d="M29.3333 24.333H24C23.4533 24.333 23 23.8797 23 23.333C23 22.7863 23.4533 22.333 24 22.333H29.3333C29.88 22.333 30.3333 22.7863 30.3333 23.333C30.3333 23.8797 29.88 24.333 29.3333 24.333Z" fill="#1C1B1B"/>
<path d="M10.6666 24.333H2.66663C2.11996 24.333 1.66663 23.8797 1.66663 23.333C1.66663 22.7863 2.11996 22.333 2.66663 22.333H10.6666C11.2133 22.333 11.6666 22.7863 11.6666 23.333C11.6666 23.8797 11.2133 24.333 10.6666 24.333Z" fill="#1C1B1B"/>
<path d="M18.6667 29.0003C15.5467 29.0003 13 26.4537 13 23.3337C13 20.2137 15.5467 17.667 18.6667 17.667C21.7867 17.667 24.3333 20.2137 24.3333 23.3337C24.3333 26.4537 21.7867 29.0003 18.6667 29.0003ZM18.6667 19.667C16.64 19.667 15 21.307 15 23.3337C15 25.3603 16.64 27.0003 18.6667 27.0003C20.6933 27.0003 22.3333 25.3603 22.3333 23.3337C22.3333 21.307 20.6933 19.667 18.6667 19.667Z" fill="#1C1B1B"/>
</svg>
