<svg width="21" height="20" viewBox="0 0 21 20" fill="none" xmlns="http://www.w3.org/2000/svg">
<path d="M20.24 9.07001C20.19 8.56001 19.76 8.17999 19.25 8.17999H11.7C11.15 8.17999 10.7 8.62999 10.7 9.17999V10.89C10.7 11.44 11.15 11.89 11.7 11.89H16.21C16.1 12.81 15.5 14.2 14.17 15.13C13.32 15.72 12.19 16.13 10.7 16.13C10.63 16.13 10.57 16.13 10.5 16.12C7.94995 16.04 5.78996 14.33 5.00996 11.98C4.79996 11.35 4.67995 10.69 4.67995 10C4.67995 9.31 4.79995 8.63999 4.99995 8.01999C5.05995 7.83999 5.12995 7.66001 5.20995 7.48001C6.12995 5.41001 8.13995 3.95 10.5 3.88C10.56 3.87 10.63 3.87 10.7 3.87C12.13 3.87 13.2 4.33999 13.95 4.85999C14.34 5.12999 14.86 5.06999 15.2 4.73999L16.59 3.38C17.03 2.95 16.99 2.21999 16.49 1.85999C14.9 0.689985 12.96 0 10.7 0C10.63 0 10.57 9.76585e-06 10.5 0.0100098C6.66995 0.0800098 3.37995 2.30001 1.76995 5.51001C1.08995 6.87001 0.699951 8.39 0.699951 10C0.699951 11.61 1.08995 13.13 1.76995 14.49H1.77995C3.38995 17.7 6.67995 19.92 10.5 19.99C10.57 20 10.63 20 10.7 20C13.4 20 15.67 19.11 17.32 17.58C19.21 15.83 20.3 13.27 20.3 10.22C20.3 9.79 20.28 9.42001 20.24 9.07001Z" fill="#21D4B4"/>
</svg>
