<svg width="24" height="24" viewBox="0 0 24 24" fill="none" xmlns="http://www.w3.org/2000/svg">
<path d="M8 22.3194C7.72 22.3194 7.42998 22.2494 7.16998 22.1094C6.59998 21.8094 6.25 21.2094 6.25 20.5694V19.1495C3.23 18.8395 1.25 16.6194 1.25 13.4394V7.43945C1.25 3.99945 3.56 1.68945 7 1.68945H17C20.44 1.68945 22.75 3.99945 22.75 7.43945V13.4394C22.75 16.8794 20.44 19.1894 17 19.1894H13.23L8.96997 22.0295C8.67997 22.2195 8.34 22.3194 8 22.3194ZM7 3.17944C4.42 3.17944 2.75 4.84944 2.75 7.42944V13.4295C2.75 16.0095 4.42 17.6795 7 17.6795C7.41 17.6795 7.75 18.0195 7.75 18.4295V20.5595C7.75 20.6895 7.83 20.7495 7.88 20.7795C7.93001 20.8095 8.03001 20.8395 8.14001 20.7695L12.59 17.8095C12.71 17.7295 12.86 17.6795 13.01 17.6795H17.01C19.59 17.6795 21.26 16.0095 21.26 13.4295V7.42944C21.26 4.84944 19.59 3.17944 17.01 3.17944H7Z" fill="#6F7384"/>
<path d="M11.9998 12.1094C11.5898 12.1094 11.2498 11.7694 11.2498 11.3594V11.1494C11.2498 9.98941 12.0998 9.4194 12.4198 9.1994C12.7898 8.9494 12.9098 8.77941 12.9098 8.51941C12.9098 8.01941 12.4998 7.60938 11.9998 7.60938C11.4998 7.60938 11.0898 8.01941 11.0898 8.51941C11.0898 8.92941 10.7498 9.26941 10.3398 9.26941C9.92984 9.26941 9.58984 8.92941 9.58984 8.51941C9.58984 7.18941 10.6698 6.10938 11.9998 6.10938C13.3298 6.10938 14.4098 7.18941 14.4098 8.51941C14.4098 9.65941 13.5698 10.2294 13.2598 10.4394C12.8698 10.6994 12.7498 10.8694 12.7498 11.1494V11.3594C12.7498 11.7794 12.4098 12.1094 11.9998 12.1094Z" fill="#6F7384"/>
<path d="M12 14.5996C11.58 14.5996 11.25 14.2596 11.25 13.8496C11.25 13.4396 11.59 13.0996 12 13.0996C12.41 13.0996 12.75 13.4396 12.75 13.8496C12.75 14.2596 12.42 14.5996 12 14.5996Z" fill="#6F7384"/>
</svg>
