<svg width="104" height="32" viewBox="0 0 104 32" fill="none" xmlns="http://www.w3.org/2000/svg">
<path fill-rule="evenodd" clip-rule="evenodd" d="M17.754 19.3569C19.2006 17.9287 21.546 17.9287 22.9926 19.3569L29.4751 25.7569C30.9216 27.1851 30.9216 29.5006 29.4751 30.9288C28.0285 32.357 25.6831 32.357 24.2365 30.9288L17.754 24.5288C16.3074 23.1006 16.3074 20.7851 17.754 19.3569Z" fill="#21D4B4"/>
<path d="M29.6339 14.6286C29.6339 22.7077 23.0002 29.2571 14.817 29.2571C6.63378 29.2571 0 22.7077 0 14.6286C0 6.54943 6.63378 0 14.817 0C23.0002 0 29.6339 6.54943 29.6339 14.6286ZM9.60089 14.6286C9.60089 17.4727 11.9362 19.7783 14.817 19.7783C17.6977 19.7783 20.0331 17.4727 20.0331 14.6286C20.0331 11.7844 17.6977 9.47881 14.817 9.47881C11.9362 9.47881 9.60089 11.7844 9.60089 14.6286Z" fill="#21D4B4"/>
<path d="M35.0193 21.9887C34.284 21.9887 33.6546 21.8423 33.131 21.5496C32.6186 21.2464 32.2287 20.8282 31.9613 20.295C31.694 19.7618 31.5603 19.1397 31.5603 18.4287V13.2378H34.0668V18.2405C34.0668 18.5647 34.1336 18.8522 34.2673 19.1031C34.4121 19.3436 34.6127 19.5318 34.8689 19.6677C35.1251 19.8036 35.4148 19.8715 35.7378 19.8715C36.072 19.8715 36.3617 19.8036 36.6068 19.6677C36.863 19.5318 37.0579 19.3436 37.1916 19.1031C37.3364 18.8522 37.4088 18.5647 37.4088 18.2405V13.2378H39.9154V21.8005H37.5759V20.1068L37.7096 20.4832C37.498 20.9955 37.1526 21.3771 36.6736 21.628C36.2057 21.8685 35.6543 21.9887 35.0193 21.9887Z" fill="#1C1B1B"/>
<path d="M41.8309 21.8005V13.2378H44.3375V21.8005H41.8309ZM41.8309 12.4693V10.1169H44.3375V12.4693H41.8309Z" fill="#1C1B1B"/>
<path d="M50.7336 21.9887C49.8201 21.9887 48.9957 21.7953 48.2604 21.4085C47.5363 21.0112 46.957 20.4727 46.5226 19.7931C46.0993 19.1135 45.8876 18.3503 45.8876 17.5035C45.8876 16.6566 46.0993 15.8986 46.5226 15.2295C46.9459 14.5499 47.5252 14.0167 48.2604 13.6298C48.9957 13.243 49.8201 13.0496 50.7336 13.0496C51.4131 13.0496 52.0425 13.1593 52.6218 13.3789C53.2011 13.5985 53.6968 13.9069 54.109 14.3042C54.5212 14.691 54.8164 15.1511 54.9947 15.6843L52.8223 16.5625C52.6664 16.1338 52.399 15.794 52.0202 15.5431C51.6526 15.2922 51.2237 15.1667 50.7336 15.1667C50.2991 15.1667 49.9092 15.2661 49.5638 15.4647C49.2296 15.6634 48.9623 15.9404 48.7617 16.2959C48.5724 16.6514 48.4777 17.0591 48.4777 17.5191C48.4777 17.9792 48.5724 18.3869 48.7617 18.7424C48.9623 19.0979 49.2296 19.3749 49.5638 19.5736C49.9092 19.7722 50.2991 19.8715 50.7336 19.8715C51.2349 19.8715 51.6693 19.7461 52.037 19.4952C52.4046 19.2442 52.6664 18.9044 52.8223 18.4758L54.9947 19.3697C54.8276 19.8715 54.5379 20.3211 54.1257 20.7184C53.7135 21.1157 53.2178 21.4294 52.6385 21.6594C52.0592 21.8789 51.4242 21.9887 50.7336 21.9887Z" fill="#1C1B1B"/>
<path d="M56.5542 21.8005V9.92871H59.0607V17.5348L58.125 17.2525L62.1521 13.2378H65.2435L61.9349 16.688L65.2268 21.8005H62.3861L59.6289 17.4564L61.0827 17.1114L58.2921 19.9656L59.0607 18.6012V21.8005H56.5542Z" fill="#1C1B1B"/>
<path d="M66.6127 21.8005V10.1169H69.1192L73.7814 15.9195H72.6117L77.1401 10.1169H79.6467V21.8005H77.0566V12.7986L78.0926 13.0182L73.2968 18.8208H72.9626L68.3339 13.0182L69.2028 12.7986V21.8005H66.6127Z" fill="#1C1B1B"/>
<path d="M84.578 21.9887C83.9207 21.9887 83.3526 21.8894 82.8736 21.6907C82.3946 21.4921 82.0269 21.2098 81.7707 20.8439C81.5145 20.4675 81.3864 20.0231 81.3864 19.5108C81.3864 19.0299 81.5033 18.6065 81.7373 18.2405C81.9712 17.8642 82.3277 17.5505 82.8067 17.2996C83.2969 17.0487 83.904 16.8709 84.6282 16.7664L87.4188 16.3429V18.068L85.0793 18.4601C84.7228 18.5228 84.4499 18.6326 84.2605 18.7894C84.0711 18.9358 83.9765 19.1501 83.9765 19.4324C83.9765 19.6938 84.0823 19.8977 84.2939 20.0441C84.5056 20.1904 84.7674 20.2636 85.0793 20.2636C85.4915 20.2636 85.8536 20.18 86.1655 20.0127C86.4774 19.8454 86.7169 19.6206 86.884 19.3383C87.0623 19.0456 87.1514 18.7267 87.1514 18.3817V16.1547C87.1514 15.8306 87.0121 15.5588 86.7336 15.3392C86.4663 15.1197 86.0987 15.0099 85.6308 15.0099C85.1852 15.0099 84.7897 15.1249 84.4443 15.3549C84.1101 15.5849 83.8651 15.8881 83.7091 16.2645L81.7039 15.3706C81.8821 14.8897 82.1662 14.4767 82.5561 14.1317C82.946 13.7867 83.4139 13.5201 83.9597 13.3319C84.5056 13.1437 85.1016 13.0496 85.7477 13.0496C86.5164 13.0496 87.196 13.1803 87.7864 13.4416C88.3768 13.703 88.8336 14.0689 89.1566 14.5394C89.4908 14.9995 89.6579 15.5379 89.6579 16.1547V21.8005H87.3185V20.4204L87.8866 20.3263C87.6193 20.7027 87.3241 21.0164 87.001 21.2673C86.6779 21.5078 86.3159 21.6855 85.9148 21.8005C85.5138 21.926 85.0682 21.9887 84.578 21.9887Z" fill="#1C1B1B"/>
<path d="M91.5797 21.8005V13.2378H93.9192V15.2922L93.7521 14.9942C93.9526 14.2728 94.2812 13.7867 94.738 13.5357C95.2059 13.2744 95.7573 13.1437 96.3923 13.1437H96.927V15.1824H96.1416C95.5289 15.1824 95.0332 15.3602 94.6544 15.7156C94.2757 16.0606 94.0863 16.552 94.0863 17.1898V21.8005H91.5797Z" fill="#1C1B1B"/>
<path d="M102.83 21.8946C101.727 21.8946 100.87 21.6176 100.257 21.0634C99.6553 20.4989 99.3546 19.7147 99.3546 18.711V15.2765H97.8172V13.2378H97.9008C98.3687 13.2378 98.7251 13.128 98.9702 12.9084C99.2264 12.6889 99.3546 12.3595 99.3546 11.9204V11.2931H101.861V13.2378H104V15.2765H101.861V18.5542C101.861 18.8469 101.917 19.0926 102.028 19.2913C102.14 19.4795 102.312 19.6206 102.546 19.7147C102.78 19.8088 103.07 19.8559 103.415 19.8559C103.493 19.8559 103.582 19.8506 103.682 19.8402C103.783 19.8297 103.889 19.8193 104 19.8088V21.8005C103.833 21.8214 103.644 21.8423 103.432 21.8632C103.22 21.8842 103.02 21.8946 102.83 21.8946Z" fill="#1C1B1B"/>
</svg>
