<svg width="104" height="32" viewBox="0 0 104 32" fill="none" xmlns="http://www.w3.org/2000/svg">
<path fill-rule="evenodd" clip-rule="evenodd" d="M17.754 19.3569C19.2006 17.9287 21.546 17.9287 22.9926 19.3569L29.4751 25.7569C30.9216 27.1851 30.9216 29.5006 29.4751 30.9288C28.0285 32.357 25.6831 32.357 24.2365 30.9288L17.754 24.5288C16.3074 23.1006 16.3074 20.7851 17.754 19.3569Z" fill="#21D4B4"/>
<path d="M29.6339 14.6286C29.6339 22.7077 23.0002 29.2571 14.817 29.2571C6.63378 29.2571 0 22.7077 0 14.6286C0 6.54943 6.63378 0 14.817 0C23.0002 0 29.6339 6.54943 29.6339 14.6286ZM9.60089 14.6286C9.60089 17.4727 11.9362 19.7783 14.817 19.7783C17.6977 19.7783 20.0331 17.4727 20.0331 14.6286C20.0331 11.7844 17.6977 9.47881 14.817 9.47881C11.9362 9.47881 9.60089 11.7844 9.60089 14.6286Z" fill="#21D4B4"/>
<path d="M35.0196 21.9887C34.2843 21.9887 33.6549 21.8423 33.1313 21.5496C32.6189 21.2464 32.229 20.8282 31.9616 20.295C31.6942 19.7618 31.5605 19.1397 31.5605 18.4287V13.2378H34.0671V18.2405C34.0671 18.5647 34.1339 18.8522 34.2676 19.1031C34.4124 19.3436 34.6129 19.5318 34.8692 19.6677C35.1254 19.8036 35.415 19.8715 35.7381 19.8715C36.0723 19.8715 36.362 19.8036 36.607 19.6677C36.8633 19.5318 37.0582 19.3436 37.1919 19.1031C37.3367 18.8522 37.4091 18.5647 37.4091 18.2405V13.2378H39.9157V21.8005H37.5762V20.1068L37.7099 20.4832C37.4982 20.9955 37.1529 21.3771 36.6739 21.628C36.206 21.8685 35.6546 21.9887 35.0196 21.9887Z" fill="white"/>
<path d="M41.8312 21.8005V13.2378H44.3377V21.8005H41.8312ZM41.8312 12.4693V10.1169H44.3377V12.4693H41.8312Z" fill="white"/>
<path d="M50.7338 21.9887C49.8203 21.9887 48.996 21.7953 48.2607 21.4085C47.5366 21.0112 46.9573 20.4727 46.5229 19.7931C46.0995 19.1135 45.8879 18.3503 45.8879 17.5035C45.8879 16.6566 46.0995 15.8986 46.5229 15.2295C46.9462 14.5499 47.5255 14.0167 48.2607 13.6298C48.996 13.243 49.8203 13.0496 50.7338 13.0496C51.4134 13.0496 52.0428 13.1593 52.6221 13.3789C53.2014 13.5985 53.6971 13.9069 54.1093 14.3042C54.5215 14.691 54.8167 15.1511 54.9949 15.6843L52.8226 16.5625C52.6666 16.1338 52.3993 15.794 52.0205 15.5431C51.6529 15.2922 51.224 15.1667 50.7338 15.1667C50.2994 15.1667 49.9095 15.2661 49.5641 15.4647C49.2299 15.6634 48.9625 15.9404 48.762 16.2959C48.5726 16.6514 48.478 17.0591 48.478 17.5191C48.478 17.9792 48.5726 18.3869 48.762 18.7424C48.9625 19.0979 49.2299 19.3749 49.5641 19.5736C49.9095 19.7722 50.2994 19.8715 50.7338 19.8715C51.2351 19.8715 51.6696 19.7461 52.0372 19.4952C52.4049 19.2442 52.6666 18.9044 52.8226 18.4758L54.9949 19.3697C54.8278 19.8715 54.5382 20.3211 54.126 20.7184C53.7138 21.1157 53.2181 21.4294 52.6388 21.6594C52.0595 21.8789 51.4245 21.9887 50.7338 21.9887Z" fill="white"/>
<path d="M56.5545 21.8005V9.92871H59.061V17.5348L58.1252 17.2525L62.1524 13.2378H65.2438L61.9352 16.688L65.2271 21.8005H62.3863L59.6292 17.4564L61.0829 17.1114L58.2923 19.9656L59.061 18.6012V21.8005H56.5545Z" fill="white"/>
<path d="M66.613 21.8005V10.1169H69.1195L73.7817 15.9195H72.6119L77.1404 10.1169H79.647V21.8005H77.0569V12.7986L78.0929 13.0182L73.2971 18.8208H72.9629L68.3341 13.0182L69.2031 12.7986V21.8005H66.613Z" fill="white"/>
<path d="M84.5783 21.9887C83.921 21.9887 83.3529 21.8894 82.8739 21.6907C82.3948 21.4921 82.0272 21.2098 81.771 20.8439C81.5148 20.4675 81.3866 20.0231 81.3866 19.5108C81.3866 19.0299 81.5036 18.6065 81.7376 18.2405C81.9715 17.8642 82.328 17.5505 82.807 17.2996C83.2972 17.0487 83.9043 16.8709 84.6284 16.7664L87.419 16.3429V18.068L85.0796 18.4601C84.7231 18.5228 84.4502 18.6326 84.2608 18.7894C84.0714 18.9358 83.9767 19.1501 83.9767 19.4324C83.9767 19.6938 84.0826 19.8977 84.2942 20.0441C84.5059 20.1904 84.7677 20.2636 85.0796 20.2636C85.4918 20.2636 85.8538 20.18 86.1658 20.0127C86.4777 19.8454 86.7172 19.6206 86.8843 19.3383C87.0626 19.0456 87.1517 18.7267 87.1517 18.3817V16.1547C87.1517 15.8306 87.0124 15.5588 86.7339 15.3392C86.4666 15.1197 86.0989 15.0099 85.631 15.0099C85.1854 15.0099 84.79 15.1249 84.4446 15.3549C84.1104 15.5849 83.8653 15.8881 83.7094 16.2645L81.7041 15.3706C81.8824 14.8897 82.1665 14.4767 82.5564 14.1317C82.9463 13.7867 83.4142 13.5201 83.96 13.3319C84.5059 13.1437 85.1019 13.0496 85.748 13.0496C86.5167 13.0496 87.1962 13.1803 87.7867 13.4416C88.3771 13.703 88.8338 14.0689 89.1569 14.5394C89.4911 14.9995 89.6582 15.5379 89.6582 16.1547V21.8005H87.3188V20.4204L87.8869 20.3263C87.6196 20.7027 87.3243 21.0164 87.0013 21.2673C86.6782 21.5078 86.3162 21.6855 85.9151 21.8005C85.5141 21.926 85.0685 21.9887 84.5783 21.9887Z" fill="white"/>
<path d="M91.58 21.8005V13.2378H93.9194V15.2922L93.7523 14.9942C93.9529 14.2728 94.2815 13.7867 94.7382 13.5357C95.2061 13.2744 95.7576 13.1437 96.3926 13.1437H96.9273V15.1824H96.1419C95.5292 15.1824 95.0335 15.3602 94.6547 15.7156C94.2759 16.0606 94.0865 16.552 94.0865 17.1898V21.8005H91.58Z" fill="white"/>
<path d="M102.831 21.8946C101.728 21.8946 100.87 21.6176 100.257 21.0634C99.6556 20.4989 99.3548 19.7147 99.3548 18.711V15.2765H97.8175V13.2378H97.901C98.3689 13.2378 98.7254 13.128 98.9705 12.9084C99.2267 12.6889 99.3548 12.3595 99.3548 11.9204V11.2931H101.861V13.2378H104V15.2765H101.861V18.5542C101.861 18.8469 101.917 19.0926 102.028 19.2913C102.14 19.4795 102.313 19.6206 102.546 19.7147C102.78 19.8088 103.07 19.8559 103.415 19.8559C103.493 19.8559 103.583 19.8506 103.683 19.8402C103.783 19.8297 103.889 19.8193 104 19.8088V21.8005C103.833 21.8214 103.644 21.8423 103.432 21.8632C103.22 21.8842 103.02 21.8946 102.831 21.8946Z" fill="white"/>
</svg>
