<svg width="24" height="24" viewBox="0 0 24 24" fill="none" xmlns="http://www.w3.org/2000/svg">
<path d="M12 22.7595C10.91 22.7595 9.83 22.4395 8.98 21.8095L4.68 18.5995C3.54 17.7495 2.65 15.9695 2.65 14.5595V7.11945C2.65 5.57945 3.78 3.93945 5.23 3.39945L10.22 1.52945C11.21 1.15945 12.77 1.15945 13.76 1.52945L18.75 3.39945C20.2 3.93945 21.33 5.57945 21.33 7.11945V14.5495C21.33 15.9695 20.44 17.7395 19.3 18.5895L15 21.7995C14.17 22.4395 13.09 22.7595 12 22.7595ZM10.75 2.93945L5.76 4.80945C4.91 5.12945 4.16 6.20945 4.16 7.12945V14.5595C4.16 15.5095 4.83 16.8395 5.58 17.3995L9.88 20.6095C11.03 21.4695 12.97 21.4695 14.13 20.6095L18.43 17.3995C19.19 16.8295 19.85 15.5095 19.85 14.5595V7.11945C19.85 6.20945 19.1 5.12945 18.25 4.79945L13.26 2.92945C12.58 2.68945 11.42 2.68945 10.75 2.93945Z" fill="#6F7384"/>
<path d="M10.66 14.2291C10.47 14.2291 10.28 14.1591 10.13 14.0091L8.52 12.3991C8.23 12.1091 8.23 11.6291 8.52 11.3391C8.81 11.0491 9.29 11.0491 9.58 11.3391L10.66 12.4191L14.43 8.64914C14.72 8.35914 15.2 8.35914 15.49 8.64914C15.78 8.93914 15.78 9.41914 15.49 9.70914L11.19 14.0091C11.04 14.1591 10.85 14.2291 10.66 14.2291Z" fill="#6F7384"/>
</svg>
