<svg width="24" height="24" viewBox="0 0 24 24" fill="none" xmlns="http://www.w3.org/2000/svg">
<path d="M11.9998 13.3008C11.8698 13.3008 11.7398 13.2709 11.6198 13.2009L2.78985 8.09088C2.42985 7.88088 2.30983 7.42085 2.51983 7.06085C2.72983 6.70085 3.17983 6.58083 3.54983 6.79083L11.9998 11.6808L20.3998 6.82086C20.7598 6.61086 21.2198 6.74088 21.4298 7.09088C21.6398 7.45088 21.5098 7.91085 21.1598 8.12085L12.3899 13.2009C12.2599 13.2609 12.1298 13.3008 11.9998 13.3008Z" fill="#6F7384"/>
<path d="M12 22.3591C11.59 22.3591 11.25 22.0191 11.25 21.6091V12.5391C11.25 12.1291 11.59 11.7891 12 11.7891C12.41 11.7891 12.75 12.1291 12.75 12.5391V21.6091C12.75 22.0191 12.41 22.3591 12 22.3591Z" fill="#6F7384"/>
<path d="M12.0001 22.75C11.1201 22.75 10.2501 22.56 9.56012 22.18L4.22012 19.21C2.77012 18.41 1.64014 16.48 1.64014 14.82V9.16998C1.64014 7.50998 2.77012 5.59002 4.22012 4.78002L9.56012 1.82C10.9301 1.06 13.0701 1.06 14.4401 1.82L19.7801 4.78997C21.2301 5.58997 22.3601 7.51999 22.3601 9.17999V14.83C22.3601 16.49 21.2301 18.41 19.7801 19.22L14.4401 22.18C13.7501 22.56 12.8801 22.75 12.0001 22.75ZM12.0001 2.74999C11.3701 2.74999 10.7501 2.88 10.2901 3.13L4.95013 6.09997C3.99013 6.63997 3.14014 8.06999 3.14014 9.17999V14.83C3.14014 15.93 3.99013 17.37 4.95013 17.91L10.2901 20.88C11.2001 21.39 12.8001 21.39 13.7101 20.88L19.0501 17.91C20.0101 17.37 20.8601 15.94 20.8601 14.83V9.17999C20.8601 8.07999 20.0101 6.63997 19.0501 6.09997L13.7101 3.13C13.2501 2.88 12.6301 2.74999 12.0001 2.74999Z" fill="#6F7384"/>
<path d="M17.0002 13.9905C16.5902 13.9905 16.2502 13.6505 16.2502 13.2405V10.0206L7.13018 4.76055C6.77018 4.55055 6.65016 4.09054 6.86016 3.74054C7.07016 3.38054 7.52018 3.26052 7.88018 3.47052L17.3702 8.95056C17.6002 9.08056 17.7502 9.33052 17.7502 9.60052V13.2606C17.7502 13.6506 17.4102 13.9905 17.0002 13.9905Z" fill="#6F7384"/>
</svg>
