<svg width="264" height="80" viewBox="0 0 264 80" fill="none" xmlns="http://www.w3.org/2000/svg">
<path fill-rule="evenodd" clip-rule="evenodd" d="M41.4834 45.9726C44.8635 42.5806 50.3436 42.5806 53.7237 45.9726L68.8703 61.1726C72.2503 64.5645 72.2503 70.064 68.8703 73.456C65.4902 76.848 60.01 76.848 56.63 73.456L41.4834 58.256C38.1033 54.864 38.1033 49.3645 41.4834 45.9726Z" fill="#21D4B4"/>
<path d="M69.2415 34.7429C69.2415 53.9308 53.7413 69.4857 34.6208 69.4857C15.5002 69.4857 0 53.9308 0 34.7429C0 15.5549 15.5002 0 34.6208 0C53.7413 0 69.2415 15.5549 69.2415 34.7429ZM22.4331 34.7429C22.4331 41.4977 27.8897 46.9735 34.6208 46.9735C41.3518 46.9735 46.8085 41.4977 46.8085 34.7429C46.8085 27.988 41.3518 22.5122 34.6208 22.5122C27.8897 22.5122 22.4331 27.988 22.4331 34.7429Z" fill="#21D4B4"/>
<path d="M84.4315 56.9786C82.5273 56.9786 80.8973 56.5733 79.5413 55.7626C78.2141 54.923 77.2044 53.7649 76.512 52.2883C75.8195 50.8117 75.4733 49.0891 75.4733 47.1203V32.7455H81.9647V46.5992C81.9647 47.4967 82.1378 48.2929 82.484 48.9877C82.8591 49.6537 83.3784 50.1748 84.042 50.5512C84.7055 50.9276 85.4557 51.1157 86.2923 51.1157C87.1578 51.1157 87.908 50.9276 88.5427 50.5512C89.2062 50.1748 89.7111 49.6537 90.0573 48.9877C90.4324 48.2929 90.6199 47.4967 90.6199 46.5992V32.7455H97.1113V56.4575H91.0527V51.7672L91.3989 52.8095C90.8507 54.2281 89.9564 55.2849 88.7158 55.9797C87.504 56.6457 86.0759 56.9786 84.4315 56.9786Z" fill="#1C1B1B"/>
<path d="M102.072 56.4575V32.7455H108.564V56.4575H102.072ZM102.072 30.6175V24.1032H108.564V30.6175H102.072Z" fill="#1C1B1B"/>
<path d="M125.128 56.9786C122.762 56.9786 120.627 56.443 118.723 55.3717C116.848 54.2716 115.348 52.7805 114.223 50.8986C113.126 49.0167 112.578 46.9032 112.578 44.558C112.578 42.2129 113.126 40.1138 114.223 38.2609C115.319 36.379 116.819 34.9024 118.723 33.8312C120.627 32.7599 122.762 32.2243 125.128 32.2243C126.888 32.2243 128.518 32.5283 130.018 33.1363C131.519 33.7443 132.802 34.5984 133.87 35.6986C134.937 36.7698 135.702 38.0437 136.163 39.5203L130.538 41.9523C130.134 40.7653 129.441 39.8243 128.46 39.1295C127.508 38.4346 126.398 38.0872 125.128 38.0872C124.003 38.0872 122.993 38.3622 122.099 38.9123C121.233 39.4624 120.541 40.2297 120.022 41.214C119.531 42.1984 119.286 43.3276 119.286 44.6015C119.286 45.8754 119.531 47.0045 120.022 47.9889C120.541 48.9733 121.233 49.7405 122.099 50.2906C122.993 50.8407 124.003 51.1157 125.128 51.1157C126.426 51.1157 127.552 50.7683 128.504 50.0735C129.456 49.3786 130.134 48.4377 130.538 47.2506L136.163 49.726C135.731 51.1157 134.981 52.3607 133.913 53.4609C132.846 54.5611 131.562 55.4297 130.062 56.0666C128.561 56.6746 126.917 56.9786 125.128 56.9786Z" fill="#1C1B1B"/>
<path d="M140.202 56.4575V23.582H146.694V44.6449L144.27 43.8632L154.7 32.7455H162.706L154.137 42.2997L162.663 56.4575H155.306L148.165 44.4277L151.93 43.4723L144.703 51.3763L146.694 47.598V56.4575H140.202Z" fill="#1C1B1B"/>
<path d="M166.252 56.4575V24.1032H172.743L184.817 40.1717H181.788L193.516 24.1032H200.007V56.4575H193.299V31.5295L195.982 32.1375L183.562 48.206H182.697L170.709 32.1375L172.96 31.5295V56.4575H166.252Z" fill="#1C1B1B"/>
<path d="M212.778 56.9786C211.076 56.9786 209.605 56.7036 208.364 56.1535C207.123 55.6034 206.171 54.8217 205.508 53.8083C204.844 52.766 204.512 51.5356 204.512 50.1169C204.512 48.7851 204.815 47.6125 205.421 46.5992C206.027 45.5569 206.95 44.6883 208.191 43.9935C209.46 43.2986 211.033 42.8064 212.908 42.5169L220.135 41.3443V46.1215L214.076 47.2072C213.153 47.3809 212.446 47.6849 211.956 48.1192C211.465 48.5245 211.22 49.118 211.22 49.8997C211.22 50.6236 211.494 51.1881 212.042 51.5935C212.591 51.9988 213.269 52.2015 214.076 52.2015C215.144 52.2015 216.082 51.9698 216.889 51.5066C217.697 51.0434 218.317 50.4209 218.75 49.6392C219.212 48.8285 219.443 47.9455 219.443 46.99V40.8232C219.443 39.9257 219.082 39.1729 218.361 38.5649C217.668 37.9569 216.716 37.6529 215.504 37.6529C214.35 37.6529 213.326 37.9714 212.432 38.6083C211.566 39.2453 210.932 40.0849 210.528 41.1272L205.335 38.6517C205.796 37.3199 206.532 36.1763 207.542 35.2209C208.551 34.2655 209.763 33.5272 211.177 33.006C212.591 32.4849 214.134 32.2243 215.807 32.2243C217.798 32.2243 219.558 32.5862 221.087 33.31C222.616 34.0338 223.799 35.0472 224.636 36.35C225.501 37.6239 225.934 39.115 225.934 40.8232V56.4575H219.875V52.6357L221.347 52.3752C220.654 53.4175 219.89 54.286 219.053 54.9809C218.216 55.6468 217.279 56.139 216.24 56.4575C215.202 56.8049 214.048 56.9786 212.778 56.9786Z" fill="#1C1B1B"/>
<path d="M230.911 56.4575V32.7455H236.97V38.4346L236.537 37.6095C237.056 35.6117 237.907 34.2655 239.09 33.5706C240.302 32.8468 241.73 32.4849 243.375 32.4849H244.759V38.1306H242.725C241.139 38.1306 239.855 38.6228 238.874 39.6072C237.893 40.5626 237.402 41.9234 237.402 43.6895V56.4575H230.911Z" fill="#1C1B1B"/>
<path d="M260.048 56.718C257.191 56.718 254.97 55.9508 253.383 54.4163C251.825 52.8529 251.046 50.6815 251.046 47.902V38.3912H247.065V32.7455H247.281C248.493 32.7455 249.416 32.4415 250.051 31.8335C250.714 31.2255 251.046 30.3135 251.046 29.0975V27.3603H257.538V32.7455H263.077V38.3912H257.538V47.4677C257.538 48.2784 257.682 48.9588 257.97 49.5089C258.259 50.03 258.706 50.4209 259.312 50.6815C259.918 50.942 260.668 51.0723 261.562 51.0723C261.764 51.0723 261.995 51.0578 262.255 51.0289C262.514 50.9999 262.788 50.971 263.077 50.942V56.4575C262.644 56.5154 262.154 56.5733 261.606 56.6312C261.057 56.6891 260.538 56.718 260.048 56.718Z" fill="#1C1B1B"/>
<path d="M77.154 77L80.822 66.57H82.866L86.534 77H84.77L83.972 74.662H79.73L78.918 77H77.154ZM80.206 73.192H83.468L81.62 67.732H82.082L80.206 73.192ZM90.4174 77.168C89.6427 77.168 88.9614 76.9767 88.3734 76.594C87.7947 76.2113 87.3887 75.698 87.1554 75.054L88.3734 74.48C88.5787 74.9093 88.8587 75.25 89.2134 75.502C89.5774 75.754 89.9787 75.88 90.4174 75.88C90.7907 75.88 91.094 75.796 91.3274 75.628C91.5607 75.46 91.6774 75.2313 91.6774 74.942C91.6774 74.7553 91.626 74.606 91.5234 74.494C91.4207 74.3727 91.29 74.2747 91.1314 74.2C90.982 74.1253 90.828 74.0693 90.6694 74.032L89.4794 73.696C88.826 73.5093 88.336 73.2293 88.0094 72.856C87.692 72.4733 87.5334 72.03 87.5334 71.526C87.5334 71.0687 87.65 70.672 87.8834 70.336C88.1167 69.9907 88.4387 69.7247 88.8494 69.538C89.26 69.3513 89.722 69.258 90.2354 69.258C90.926 69.258 91.542 69.4307 92.0834 69.776C92.6247 70.112 93.0074 70.5833 93.2314 71.19L92.0134 71.764C91.864 71.4 91.626 71.1107 91.2994 70.896C90.982 70.6813 90.6227 70.574 90.2214 70.574C89.876 70.574 89.6007 70.658 89.3954 70.826C89.19 70.9847 89.0874 71.1947 89.0874 71.456C89.0874 71.6333 89.134 71.7827 89.2274 71.904C89.3207 72.016 89.442 72.1093 89.5914 72.184C89.7407 72.2493 89.8947 72.3053 90.0534 72.352L91.2854 72.716C91.9107 72.8933 92.3914 73.1733 92.7274 73.556C93.0634 73.9293 93.2314 74.3773 93.2314 74.9C93.2314 75.348 93.11 75.7447 92.8674 76.09C92.634 76.426 92.3074 76.692 91.8874 76.888C91.4674 77.0747 90.9774 77.168 90.4174 77.168ZM94.7814 77V69.426H96.3634V77H94.7814ZM94.7814 68.39V66.57H96.3634V68.39H94.7814ZM100.481 77.168C99.9677 77.168 99.5151 77.0793 99.1231 76.902C98.7404 76.7153 98.4417 76.4633 98.2271 76.146C98.0124 75.8193 97.9051 75.4367 97.9051 74.998C97.9051 74.5873 97.9937 74.2187 98.1711 73.892C98.3577 73.5653 98.6424 73.29 99.0251 73.066C99.4077 72.842 99.8884 72.6833 100.467 72.59L103.099 72.156V73.402L100.775 73.808C100.355 73.8827 100.047 74.018 99.8511 74.214C99.6551 74.4007 99.5571 74.6433 99.5571 74.942C99.5571 75.2313 99.6644 75.4693 99.8791 75.656C100.103 75.8333 100.388 75.922 100.733 75.922C101.162 75.922 101.536 75.8287 101.853 75.642C102.18 75.4553 102.432 75.208 102.609 74.9C102.786 74.5827 102.875 74.2327 102.875 73.85V71.904C102.875 71.5307 102.735 71.2273 102.455 70.994C102.184 70.7513 101.82 70.63 101.363 70.63C100.943 70.63 100.574 70.742 100.257 70.966C99.9491 71.1807 99.7204 71.4607 99.5711 71.806L98.2551 71.148C98.3951 70.7747 98.6237 70.448 98.9411 70.168C99.2584 69.8787 99.6271 69.6547 100.047 69.496C100.476 69.3373 100.929 69.258 101.405 69.258C102.002 69.258 102.53 69.37 102.987 69.594C103.454 69.818 103.813 70.1307 104.065 70.532C104.326 70.924 104.457 71.3813 104.457 71.904V77H102.945V75.628L103.267 75.67C103.09 75.978 102.861 76.244 102.581 76.468C102.31 76.692 101.998 76.8647 101.643 76.986C101.298 77.1073 100.91 77.168 100.481 77.168ZM106.713 70.308V69.538C107.021 69.4633 107.259 69.328 107.427 69.132C107.595 68.9267 107.697 68.6793 107.735 68.39H106.993V66.57H108.603V67.76C108.603 68.4413 108.444 69.006 108.127 69.454C107.809 69.8927 107.338 70.1773 106.713 70.308ZM113.701 77.168C112.926 77.168 112.245 76.9767 111.657 76.594C111.078 76.2113 110.672 75.698 110.439 75.054L111.657 74.48C111.862 74.9093 112.142 75.25 112.497 75.502C112.861 75.754 113.262 75.88 113.701 75.88C114.074 75.88 114.377 75.796 114.611 75.628C114.844 75.46 114.961 75.2313 114.961 74.942C114.961 74.7553 114.909 74.606 114.807 74.494C114.704 74.3727 114.573 74.2747 114.415 74.2C114.265 74.1253 114.111 74.0693 113.953 74.032L112.763 73.696C112.109 73.5093 111.619 73.2293 111.293 72.856C110.975 72.4733 110.817 72.03 110.817 71.526C110.817 71.0687 110.933 70.672 111.167 70.336C111.4 69.9907 111.722 69.7247 112.133 69.538C112.543 69.3513 113.005 69.258 113.519 69.258C114.209 69.258 114.825 69.4307 115.367 69.776C115.908 70.112 116.291 70.5833 116.515 71.19L115.297 71.764C115.147 71.4 114.909 71.1107 114.583 70.896C114.265 70.6813 113.906 70.574 113.505 70.574C113.159 70.574 112.884 70.658 112.679 70.826C112.473 70.9847 112.371 71.1947 112.371 71.456C112.371 71.6333 112.417 71.7827 112.511 71.904C112.604 72.016 112.725 72.1093 112.875 72.184C113.024 72.2493 113.178 72.3053 113.337 72.352L114.569 72.716C115.194 72.8933 115.675 73.1733 116.011 73.556C116.347 73.9293 116.515 74.3773 116.515 74.9C116.515 75.348 116.393 75.7447 116.151 76.09C115.917 76.426 115.591 76.692 115.171 76.888C114.751 77.0747 114.261 77.168 113.701 77.168ZM120.666 77V66.57H121.996L127.848 74.648L127.218 74.746V66.57H128.856V77H127.526L121.716 68.866L122.318 68.754V77H120.666ZM134.516 77.168C133.788 77.168 133.12 76.9953 132.514 76.65C131.916 76.3047 131.44 75.8333 131.086 75.236C130.731 74.6387 130.554 73.962 130.554 73.206C130.554 72.4407 130.731 71.764 131.086 71.176C131.44 70.5787 131.916 70.112 132.514 69.776C133.111 69.4307 133.778 69.258 134.516 69.258C135.262 69.258 135.93 69.4307 136.518 69.776C137.115 70.112 137.586 70.5787 137.932 71.176C138.286 71.764 138.464 72.4407 138.464 73.206C138.464 73.9713 138.286 74.6527 137.932 75.25C137.577 75.8473 137.101 76.3187 136.504 76.664C135.906 77 135.244 77.168 134.516 77.168ZM134.516 75.698C134.964 75.698 135.36 75.5907 135.706 75.376C136.051 75.1613 136.322 74.8673 136.518 74.494C136.723 74.1113 136.826 73.682 136.826 73.206C136.826 72.73 136.723 72.3053 136.518 71.932C136.322 71.5587 136.051 71.2647 135.706 71.05C135.36 70.8353 134.964 70.728 134.516 70.728C134.077 70.728 133.68 70.8353 133.326 71.05C132.98 71.2647 132.705 71.5587 132.5 71.932C132.304 72.3053 132.206 72.73 132.206 73.206C132.206 73.682 132.304 74.1113 132.5 74.494C132.705 74.8673 132.98 75.1613 133.326 75.376C133.68 75.5907 134.077 75.698 134.516 75.698ZM143.995 77V67.97H141.993V66.57H145.633V77H143.995ZM150.539 77V66.57H157.413V68.04H152.191V71.036H157.133V72.506H152.191V75.53H157.413V77H150.539ZM162.391 77.168C161.635 77.168 160.963 76.9953 160.375 76.65C159.796 76.2953 159.334 75.8193 158.989 75.222C158.653 74.6247 158.485 73.948 158.485 73.192C158.485 72.4453 158.653 71.7733 158.989 71.176C159.325 70.5787 159.787 70.112 160.375 69.776C160.963 69.4307 161.635 69.258 162.391 69.258C162.904 69.258 163.385 69.3513 163.833 69.538C164.281 69.7153 164.668 69.9627 164.995 70.28C165.331 70.5973 165.578 70.966 165.737 71.386L164.351 72.03C164.192 71.638 163.936 71.3253 163.581 71.092C163.236 70.8493 162.839 70.728 162.391 70.728C161.962 70.728 161.574 70.8353 161.229 71.05C160.893 71.2553 160.627 71.5493 160.431 71.932C160.235 72.3053 160.137 72.73 160.137 73.206C160.137 73.682 160.235 74.1113 160.431 74.494C160.627 74.8673 160.893 75.1613 161.229 75.376C161.574 75.5907 161.962 75.698 162.391 75.698C162.848 75.698 163.245 75.5813 163.581 75.348C163.926 75.1053 164.183 74.7833 164.351 74.382L165.737 75.04C165.588 75.4413 165.345 75.8053 165.009 76.132C164.682 76.4493 164.295 76.7013 163.847 76.888C163.399 77.0747 162.914 77.168 162.391 77.168ZM170.937 77.168C170.209 77.168 169.542 76.9953 168.935 76.65C168.338 76.3047 167.862 75.8333 167.507 75.236C167.153 74.6387 166.975 73.962 166.975 73.206C166.975 72.4407 167.153 71.764 167.507 71.176C167.862 70.5787 168.338 70.112 168.935 69.776C169.533 69.4307 170.2 69.258 170.937 69.258C171.684 69.258 172.351 69.4307 172.939 69.776C173.537 70.112 174.008 70.5787 174.353 71.176C174.708 71.764 174.885 72.4407 174.885 73.206C174.885 73.9713 174.708 74.6527 174.353 75.25C173.999 75.8473 173.523 76.3187 172.925 76.664C172.328 77 171.665 77.168 170.937 77.168ZM170.937 75.698C171.385 75.698 171.782 75.5907 172.127 75.376C172.473 75.1613 172.743 74.8673 172.939 74.494C173.145 74.1113 173.247 73.682 173.247 73.206C173.247 72.73 173.145 72.3053 172.939 71.932C172.743 71.5587 172.473 71.2647 172.127 71.05C171.782 70.8353 171.385 70.728 170.937 70.728C170.499 70.728 170.102 70.8353 169.747 71.05C169.402 71.2647 169.127 71.5587 168.921 71.932C168.725 72.3053 168.627 72.73 168.627 73.206C168.627 73.682 168.725 74.1113 168.921 74.494C169.127 74.8673 169.402 75.1613 169.747 75.376C170.102 75.5907 170.499 75.698 170.937 75.698ZM176.43 77V69.426H177.942V71.064L177.746 70.812C177.905 70.2987 178.194 69.9113 178.614 69.65C179.034 69.3887 179.515 69.258 180.056 69.258C180.663 69.258 181.199 69.4213 181.666 69.748C182.142 70.0653 182.459 70.49 182.618 71.022L182.17 71.064C182.394 70.4573 182.735 70.0047 183.192 69.706C183.659 69.4073 184.191 69.258 184.788 69.258C185.311 69.258 185.782 69.3793 186.202 69.622C186.631 69.8647 186.972 70.2007 187.224 70.63C187.476 71.0593 187.602 71.5493 187.602 72.1V77H186.02V72.534C186.02 72.1513 185.95 71.8293 185.81 71.568C185.679 71.2973 185.493 71.092 185.25 70.952C185.017 70.8027 184.741 70.728 184.424 70.728C184.107 70.728 183.827 70.8027 183.584 70.952C183.341 71.092 183.15 71.2973 183.01 71.568C182.87 71.8387 182.8 72.1607 182.8 72.534V77H181.232V72.534C181.232 72.1513 181.162 71.8293 181.022 71.568C180.891 71.2973 180.705 71.092 180.462 70.952C180.229 70.8027 179.949 70.728 179.622 70.728C179.305 70.728 179.025 70.8027 178.782 70.952C178.539 71.092 178.348 71.2973 178.208 71.568C178.077 71.8387 178.012 72.1607 178.012 72.534V77H176.43ZM189.295 77V69.426H190.807V71.064L190.611 70.812C190.77 70.2987 191.059 69.9113 191.479 69.65C191.899 69.3887 192.38 69.258 192.921 69.258C193.528 69.258 194.064 69.4213 194.531 69.748C195.007 70.0653 195.324 70.49 195.483 71.022L195.035 71.064C195.259 70.4573 195.6 70.0047 196.057 69.706C196.524 69.4073 197.056 69.258 197.653 69.258C198.176 69.258 198.647 69.3793 199.067 69.622C199.496 69.8647 199.837 70.2007 200.089 70.63C200.341 71.0593 200.467 71.5493 200.467 72.1V77H198.885V72.534C198.885 72.1513 198.815 71.8293 198.675 71.568C198.544 71.2973 198.358 71.092 198.115 70.952C197.882 70.8027 197.606 70.728 197.289 70.728C196.972 70.728 196.692 70.8027 196.449 70.952C196.206 71.092 196.015 71.2973 195.875 71.568C195.735 71.8387 195.665 72.1607 195.665 72.534V77H194.097V72.534C194.097 72.1513 194.027 71.8293 193.887 71.568C193.756 71.2973 193.57 71.092 193.327 70.952C193.094 70.8027 192.814 70.728 192.487 70.728C192.17 70.728 191.89 70.8027 191.647 70.952C191.404 71.092 191.213 71.2973 191.073 71.568C190.942 71.8387 190.877 72.1607 190.877 72.534V77H189.295ZM205.716 77.168C204.96 77.168 204.288 76.9953 203.7 76.65C203.122 76.2953 202.669 75.8193 202.342 75.222C202.016 74.6153 201.852 73.9387 201.852 73.192C201.852 72.4267 202.016 71.75 202.342 71.162C202.678 70.574 203.126 70.112 203.686 69.776C204.246 69.4307 204.881 69.258 205.59 69.258C206.16 69.258 206.668 69.356 207.116 69.552C207.564 69.748 207.942 70.0187 208.25 70.364C208.558 70.7 208.792 71.0873 208.95 71.526C209.118 71.9647 209.202 72.4313 209.202 72.926C209.202 73.0473 209.198 73.1733 209.188 73.304C209.179 73.4347 209.16 73.556 209.132 73.668H203.098V72.408H208.236L207.48 72.982C207.574 72.5247 207.541 72.1187 207.382 71.764C207.233 71.4 207 71.1153 206.682 70.91C206.374 70.6953 206.01 70.588 205.59 70.588C205.17 70.588 204.797 70.6953 204.47 70.91C204.144 71.1153 203.892 71.414 203.714 71.806C203.537 72.1887 203.467 72.6553 203.504 73.206C203.458 73.7193 203.528 74.1673 203.714 74.55C203.91 74.9327 204.181 75.2313 204.526 75.446C204.881 75.6607 205.282 75.768 205.73 75.768C206.188 75.768 206.575 75.6653 206.892 75.46C207.219 75.2547 207.476 74.9887 207.662 74.662L208.95 75.292C208.801 75.6467 208.568 75.9687 208.25 76.258C207.942 76.538 207.569 76.762 207.13 76.93C206.701 77.0887 206.23 77.168 205.716 77.168ZM210.746 77V69.426H212.258V70.952L212.118 70.728C212.286 70.2333 212.557 69.8787 212.93 69.664C213.304 69.44 213.752 69.328 214.274 69.328H214.736V70.77H214.078C213.556 70.77 213.131 70.9333 212.804 71.26C212.487 71.5773 212.328 72.0347 212.328 72.632V77H210.746ZM219.417 77.168C218.661 77.168 217.989 76.9953 217.401 76.65C216.822 76.2953 216.36 75.8193 216.015 75.222C215.679 74.6247 215.511 73.948 215.511 73.192C215.511 72.4453 215.679 71.7733 216.015 71.176C216.351 70.5787 216.813 70.112 217.401 69.776C217.989 69.4307 218.661 69.258 219.417 69.258C219.93 69.258 220.411 69.3513 220.859 69.538C221.307 69.7153 221.694 69.9627 222.021 70.28C222.357 70.5973 222.604 70.966 222.763 71.386L221.377 72.03C221.218 71.638 220.961 71.3253 220.607 71.092C220.261 70.8493 219.865 70.728 219.417 70.728C218.987 70.728 218.6 70.8353 218.255 71.05C217.919 71.2553 217.653 71.5493 217.457 71.932C217.261 72.3053 217.163 72.73 217.163 73.206C217.163 73.682 217.261 74.1113 217.457 74.494C217.653 74.8673 217.919 75.1613 218.255 75.376C218.6 75.5907 218.987 75.698 219.417 75.698C219.874 75.698 220.271 75.5813 220.607 75.348C220.952 75.1053 221.209 74.7833 221.377 74.382L222.763 75.04C222.613 75.4413 222.371 75.8053 222.035 76.132C221.708 76.4493 221.321 76.7013 220.873 76.888C220.425 77.0747 219.939 77.168 219.417 77.168ZM227.865 77.168C227.109 77.168 226.437 76.9953 225.849 76.65C225.27 76.2953 224.817 75.8193 224.491 75.222C224.164 74.6153 224.001 73.9387 224.001 73.192C224.001 72.4267 224.164 71.75 224.491 71.162C224.827 70.574 225.275 70.112 225.835 69.776C226.395 69.4307 227.029 69.258 227.739 69.258C228.308 69.258 228.817 69.356 229.265 69.552C229.713 69.748 230.091 70.0187 230.399 70.364C230.707 70.7 230.94 71.0873 231.099 71.526C231.267 71.9647 231.351 72.4313 231.351 72.926C231.351 73.0473 231.346 73.1733 231.337 73.304C231.327 73.4347 231.309 73.556 231.281 73.668H225.247V72.408H230.385L229.629 72.982C229.722 72.5247 229.689 72.1187 229.531 71.764C229.381 71.4 229.148 71.1153 228.831 70.91C228.523 70.6953 228.159 70.588 227.739 70.588C227.319 70.588 226.945 70.6953 226.619 70.91C226.292 71.1153 226.04 71.414 225.863 71.806C225.685 72.1887 225.615 72.6553 225.653 73.206C225.606 73.7193 225.676 74.1673 225.863 74.55C226.059 74.9327 226.329 75.2313 226.675 75.446C227.029 75.6607 227.431 75.768 227.879 75.768C228.336 75.768 228.723 75.6653 229.041 75.46C229.367 75.2547 229.624 74.9887 229.811 74.662L231.099 75.292C230.949 75.6467 230.716 75.9687 230.399 76.258C230.091 76.538 229.717 76.762 229.279 76.93C228.849 77.0887 228.378 77.168 227.865 77.168ZM234.572 77L238.24 66.57H240.284L243.952 77H242.188L241.39 74.662H237.148L236.336 77H234.572ZM237.624 73.192H240.886L239.038 67.732H239.5L237.624 73.192ZM245.035 79.8V69.426H246.547V70.994L246.365 70.63C246.645 70.2007 247.019 69.8647 247.485 69.622C247.952 69.3793 248.484 69.258 249.081 69.258C249.8 69.258 250.444 69.4307 251.013 69.776C251.592 70.1213 252.045 70.5927 252.371 71.19C252.707 71.7873 252.875 72.4593 252.875 73.206C252.875 73.9527 252.707 74.6247 252.371 75.222C252.045 75.8193 251.597 76.2953 251.027 76.65C250.458 76.9953 249.809 77.168 249.081 77.168C248.493 77.168 247.957 77.0467 247.471 76.804C246.995 76.5613 246.627 76.2113 246.365 75.754L246.617 75.46V79.8H245.035ZM248.927 75.698C249.375 75.698 249.772 75.5907 250.117 75.376C250.463 75.1613 250.733 74.8673 250.929 74.494C251.135 74.1113 251.237 73.682 251.237 73.206C251.237 72.73 251.135 72.3053 250.929 71.932C250.733 71.5587 250.463 71.2647 250.117 71.05C249.772 70.8353 249.375 70.728 248.927 70.728C248.489 70.728 248.092 70.8353 247.737 71.05C247.392 71.2647 247.117 71.5587 246.911 71.932C246.715 72.3053 246.617 72.73 246.617 73.206C246.617 73.682 246.715 74.1113 246.911 74.494C247.117 74.8673 247.392 75.1613 247.737 75.376C248.092 75.5907 248.489 75.698 248.927 75.698ZM254.414 79.8V69.426H255.926V70.994L255.744 70.63C256.024 70.2007 256.398 69.8647 256.864 69.622C257.331 69.3793 257.863 69.258 258.46 69.258C259.179 69.258 259.823 69.4307 260.392 69.776C260.971 70.1213 261.424 70.5927 261.75 71.19C262.086 71.7873 262.254 72.4593 262.254 73.206C262.254 73.9527 262.086 74.6247 261.75 75.222C261.424 75.8193 260.976 76.2953 260.406 76.65C259.837 76.9953 259.188 77.168 258.46 77.168C257.872 77.168 257.336 77.0467 256.85 76.804C256.374 76.5613 256.006 76.2113 255.744 75.754L255.996 75.46V79.8H254.414ZM258.306 75.698C258.754 75.698 259.151 75.5907 259.496 75.376C259.842 75.1613 260.112 74.8673 260.308 74.494C260.514 74.1113 260.616 73.682 260.616 73.206C260.616 72.73 260.514 72.3053 260.308 71.932C260.112 71.5587 259.842 71.2647 259.496 71.05C259.151 70.8353 258.754 70.728 258.306 70.728C257.868 70.728 257.471 70.8353 257.116 71.05C256.771 71.2647 256.496 71.5587 256.29 71.932C256.094 72.3053 255.996 72.73 255.996 73.206C255.996 73.682 256.094 74.1113 256.29 74.494C256.496 74.8673 256.771 75.1613 257.116 75.376C257.471 75.5907 257.868 75.698 258.306 75.698Z" fill="#1C1B1B"/>
</svg>
